<?xml version="1.0" encoding="UTF-8"?>
<svg version="1.1" xmlns="http://www.w3.org/2000/svg" width="512" height="512">
<path d="M0 0 C0.90186035 0.17692383 1.8037207 0.35384766 2.73291016 0.53613281 C9.20599895 1.83501287 15.60888488 3.34657126 22 5 C22.82000488 5.20963379 23.64000977 5.41926758 24.48486328 5.63525391 C58.17024255 14.44485883 88.96649009 31.29229379 116 53 C117.50046875 54.19109375 117.50046875 54.19109375 119.03125 55.40625 C132.89778302 66.7515952 146.2899831 79.6029281 157 94 C157.45971191 94.59973633 157.91942383 95.19947266 158.39306641 95.81738281 C183.7457788 128.9479423 200.63105558 166.93602242 208 208 C208.16226074 208.83128418 208.32452148 209.66256836 208.49169922 210.51904297 C213.76694663 238.13651472 213.55756833 270.45402542 208 298 C207.82307617 298.90186035 207.64615234 299.8037207 207.46386719 300.73291016 C206.16498713 307.20599895 204.65342874 313.60888488 203 320 C202.79036621 320.82000488 202.58073242 321.64000977 202.36474609 322.48486328 C193.55514117 356.17024255 176.70770621 386.96649009 155 414 C154.2059375 415.0003125 153.411875 416.000625 152.59375 417.03125 C141.2484048 430.89778302 128.3970719 444.2899831 114 455 C113.10039551 455.68956787 113.10039551 455.68956787 112.18261719 456.39306641 C79.0520577 481.7457788 41.06397758 498.63105558 0 506 C-0.83128418 506.16226074 -1.66256836 506.32452148 -2.51904297 506.49169922 C-30.13651472 511.76694663 -62.45402542 511.55756833 -90 506 C-90.90186035 505.82307617 -91.8037207 505.64615234 -92.73291016 505.46386719 C-99.20599895 504.16498713 -105.60888488 502.65342874 -112 501 C-112.82000488 500.79036621 -113.64000977 500.58073242 -114.48486328 500.36474609 C-148.17024255 491.55514117 -178.96649009 474.70770621 -206 453 C-207.0003125 452.2059375 -208.000625 451.411875 -209.03125 450.59375 C-222.89778302 439.2484048 -236.2899831 426.3970719 -247 412 C-247.68956787 411.10039551 -247.68956787 411.10039551 -248.39306641 410.18261719 C-273.7457788 377.0520577 -290.63105558 339.06397758 -298 298 C-298.16226074 297.16871582 -298.32452148 296.33743164 -298.49169922 295.48095703 C-303.76694663 267.86348528 -303.55756833 235.54597458 -298 208 C-297.82307617 207.09813965 -297.64615234 206.1962793 -297.46386719 205.26708984 C-296.16498713 198.79400105 -294.65342874 192.39111512 -293 186 C-292.79036621 185.17999512 -292.58073242 184.35999023 -292.36474609 183.51513672 C-283.55514117 149.82975745 -266.70770621 119.03350991 -245 92 C-244.2059375 90.9996875 -243.411875 89.999375 -242.59375 88.96875 C-231.2484048 75.10221698 -218.3970719 61.7100169 -204 51 C-203.40026367 50.54028809 -202.80052734 50.08057617 -202.18261719 49.60693359 C-169.0520577 24.2542212 -131.06397758 7.36894442 -90 0 C-89.16871582 -0.16226074 -88.33743164 -0.32452148 -87.48095703 -0.49169922 C-59.86348528 -5.76694663 -27.54597458 -5.55756833 0 0 Z " fill="#38D2DE" transform="translate(301,3)"/>
<path d="M0 0 C0.68578125 0.27295898 1.3715625 0.54591797 2.078125 0.82714844 C26.13399418 10.40779342 44.66307008 26.13793454 55.3125 50.125 C58.30498195 57.41867601 60.4074042 64.05561814 60 72 C59.31292969 72.04898438 58.62585938 72.09796875 57.91796875 72.1484375 C56.56638672 72.26058594 56.56638672 72.26058594 55.1875 72.375 C53.84751953 72.47941406 53.84751953 72.47941406 52.48046875 72.5859375 C49.75601501 72.86645036 49.75601501 72.86645036 47 75 C47.33 77.31 47.66 79.62 48 82 C49.30453125 81.95359375 50.6090625 81.9071875 51.953125 81.859375 C68.16530112 81.44941193 78.83452772 84.07166539 92 94 C92.54865723 94.41169434 93.09731445 94.82338867 93.66259766 95.24755859 C107.99844281 106.16716732 117.88189544 121.23016697 121.53125 139.0859375 C123.11321005 152.29530392 123.25237502 166.29410838 119 179 C118.47212891 180.62421875 118.47212891 180.62421875 117.93359375 182.28125 C109.93677186 204.87293164 93.53106246 219.3289293 72.37109375 229.49609375 C55.38614447 237.07338862 37.20676999 239.14579387 19.48046875 232.50390625 C13.8377495 230.06569423 8.37972887 227.37972887 4 223 C0.57278647 223.36474361 -0.22413497 224.20951747 -2.875 226.6875 C-13.45816457 236.11737099 -31.06795736 240.5733196 -45 241 C-46.16402344 241.03996094 -47.32804688 241.07992187 -48.52734375 241.12109375 C-67.56621664 241.45510906 -87.96274574 238.46900672 -102.4375 225.0625 C-103.03433594 224.45535156 -103.63117188 223.84820312 -104.24609375 223.22265625 C-105.91274311 221.79296581 -105.91274311 221.79296581 -107.9609375 222.109375 C-110.37931093 223.16567604 -112.12761072 224.53594276 -114.1875 226.1875 C-130.11012608 237.30806425 -148.82371586 238.42732209 -167.69433594 235.59570312 C-188.6735319 231.32961918 -209.43793543 218.35357493 -222.1328125 201.1015625 C-223.85133226 198.44566833 -225.44386026 195.75349123 -227 193 C-227.47050781 192.25234375 -227.94101563 191.5046875 -228.42578125 190.734375 C-232.03553525 184.81395252 -233.60393163 178.7539524 -235 172 C-235.17200928 171.2376001 -235.34401855 170.4752002 -235.52124023 169.68969727 C-239.20674706 148.98432825 -236.09864284 126.40357735 -224 109 C-218.35716288 101.71980224 -211.84325917 94.88507492 -204 90 C-203.02804688 89.3090625 -202.05609375 88.618125 -201.0546875 87.90625 C-189.56945068 80.34842658 -177.38652155 80.77119773 -164 81 C-164 79.35 -164 77.7 -164 76 C-169.24882694 72.82307843 -174.01488629 72.34302035 -180 72 C-180.825293 64.24224576 -177.64445053 59.37343404 -172.9453125 53.37890625 C-168.50129819 48.20447436 -164.17268548 43.97158636 -158 41 C-157.37222656 40.68289062 -156.74445313 40.36578125 -156.09765625 40.0390625 C-150.96384268 37.89094089 -145.92536519 37.72370199 -140.4375 37.6875 C-139.72924072 37.68194092 -139.02098145 37.67638184 -138.29125977 37.6706543 C-131.25850876 37.76596669 -125.04361709 39.15724025 -118.8125 42.5625 C-114.92252102 44.68030762 -111.47750226 46 -107 46 C-107 45.34 -107 44.68 -107 44 C-106.34 44 -105.68 44 -105 44 C-105.474375 43.2575 -105.94875 42.515 -106.4375 41.75 C-107.82934427 39.30035408 -108.65450899 37.75345865 -109 35 C-101.28204809 19.00533043 -80.6962987 6.64982977 -65 0 C-63.82179687 -0.50789063 -62.64359375 -1.01578125 -61.4296875 -1.5390625 C-43.05347699 -8.56044181 -17.9861766 -7.60307776 0 0 Z " fill="#F8F3E4" transform="translate(310,119)"/>
<path d="M0 0 C0.81726563 0.33 1.63453125 0.66 2.4765625 1 C10.63109825 4.45775368 18.92269057 8.64419827 26 14 C26 14.66 26 15.32 26 16 C26.680625 16.185625 27.36125 16.37125 28.0625 16.5625 C36.06369311 20.47797748 41.65124446 29.13560076 47 36 C47.57105469 36.71929687 48.14210938 37.43859375 48.73046875 38.1796875 C52.4619342 43.26368926 54.39519921 48.6403867 56.23828125 54.61206055 C57.28954207 57.99473272 58.38285004 61.04685133 60.25 64.0625 C63.46288943 69.45556439 63.10504784 74.90722538 63 81 C64.010625 81.103125 65.02125 81.20625 66.0625 81.3125 C77.95408359 83.38880825 87.37990788 90.98783481 96 99 C97.39287331 100.19097057 98.78860145 101.37861242 100.1875 102.5625 C114.23882548 114.88871225 121.81826539 131.73298051 125 150 C125.91395063 165.65697278 125.47613127 180.54969997 119 195 C118.54753906 196.10988281 118.09507812 197.21976563 117.62890625 198.36328125 C115.97150074 202.06362784 114.06349112 205.47328204 111.875 208.875 C111.48538086 209.48142334 111.09576172 210.08784668 110.69433594 210.71264648 C107.08415548 216.1619345 102.81250735 220.58694978 98 225 C97.21625 225.845625 96.4325 226.69125 95.625 227.5625 C84.97151964 237.45501748 72.23855795 243.35078777 59 249 C58.154375 249.391875 57.30875 249.78375 56.4375 250.1875 C47.3236145 253.22546183 36.85334842 252.17668703 27.38720703 252.02832031 C25.49653189 252.00589054 23.60539 252.02321586 21.71484375 252.0546875 C14.22476333 251.89652592 8.61167856 248.49582985 2.28515625 244.8125 C-1.19418319 242.82698335 -1.19418319 242.82698335 -5 242 C-6.33977542 242.89318361 -7.67269067 243.79839312 -8.96875 244.75390625 C-12.67718705 247.02888975 -16.815619 248.33264376 -20.8828125 249.8359375 C-23.24288808 250.71726898 -25.52359853 251.64325463 -27.8125 252.6875 C-37.58402004 256.71106708 -47.85478582 257.19708895 -58.3125 257.1875 C-59.23240723 257.18669434 -60.15231445 257.18588867 -61.10009766 257.18505859 C-78.40383855 257.02955361 -101.30015752 252.69984248 -114 240 C-117.27840891 240.35149951 -119.14757078 241.75102934 -121.6875 243.75 C-130.34961613 249.71148954 -142.54364518 252.70074405 -153 253 C-154.55074219 253.11021484 -154.55074219 253.11021484 -156.1328125 253.22265625 C-182.39280935 254.32863884 -206.8545036 242.27071486 -226 225 C-232.78754875 218.40762038 -237.48420042 211.27116658 -242 203 C-242.55945313 202.14019531 -243.11890625 201.28039062 -243.6953125 200.39453125 C-245 198 -245 198 -245 194 C-245.66 194 -246.32 194 -247 194 C-254.91421892 171.31678212 -256.25645053 148.17463737 -246.203125 125.7734375 C-237.56808614 108.12715809 -222.40801567 88.6762865 -203.109375 82 C-200.625 81.4375 -200.625 81.4375 -197 81 C-197.00902344 80.44054687 -197.01804688 79.88109375 -197.02734375 79.3046875 C-196.61577175 68.17434896 -190.792277 57.86091613 -183.15234375 49.95703125 C-171.03389154 38.93825709 -158.09763508 34.6896711 -141.91796875 34.76953125 C-135.80640548 35.12903497 -129.52185422 36.23907289 -124 39 C-123.50693359 38.19949219 -123.50693359 38.19949219 -123.00390625 37.3828125 C-115.71885547 25.97154054 -106.80142768 17.89280794 -96 10 C-95.37480469 9.49597656 -94.74960938 8.99195312 -94.10546875 8.47265625 C-85.86336681 1.94157294 -75.01260186 -1.13213607 -65.125 -4.3125 C-64.34092773 -4.56700928 -63.55685547 -4.82151855 -62.74902344 -5.08374023 C-42.1897027 -11.48292686 -19.57221377 -8.05026787 0 0 Z M-72 7 C-72.66451172 7.27875977 -73.32902344 7.55751953 -74.01367188 7.84472656 C-89.40287144 14.41825883 -108.11457129 26.74621987 -116 42 C-115.7818773 45.48996318 -113.85251339 48.10041382 -112 51 C-112.66 51 -113.32 51 -114 51 C-114 51.66 -114 52.32 -114 53 C-119.28684066 53.66085508 -121.90290953 52.0756547 -126.12109375 49.2421875 C-134.59192551 43.64192866 -146.21165199 44.14752641 -156 45 C-168.24711028 47.55757076 -177.61669293 55.8343095 -184.390625 66.109375 C-186.8469052 70.57219396 -187.42191315 73.93704225 -187 79 C-185.64455078 79.18175781 -185.64455078 79.18175781 -184.26171875 79.3671875 C-183.08222656 79.53476563 -181.90273437 79.70234375 -180.6875 79.875 C-179.51574219 80.03742188 -178.34398437 80.19984375 -177.13671875 80.3671875 C-174 81 -174 81 -171 83 C-170.8125 85.625 -170.8125 85.625 -171 88 C-171.66829834 87.98316162 -172.33659668 87.96632324 -173.02514648 87.94897461 C-193.34323565 87.61606262 -206.91163666 91.23432533 -221.66723633 105.41748047 C-235.73977827 119.66764357 -243.3406401 137.01530044 -243.41015625 157.10546875 C-243.39855469 158.22566406 -243.38695312 159.34585938 -243.375 160.5 C-243.38660156 161.62019531 -243.39820313 162.74039063 -243.41015625 163.89453125 C-243.33143015 186.64637442 -233.89557131 204.07577803 -218.10546875 219.8984375 C-207.81546424 229.47355749 -194.28861006 236.99394695 -180.640625 240.32421875 C-178 241 -178 241 -175.21704102 242.0168457 C-160.19753706 246.60693012 -140.82399216 244.20162672 -127 237 C-124.19009528 235.2610401 -121.55751043 233.48416323 -118.98046875 231.41796875 C-116.82372303 229.87378986 -115.66464186 229.06102233 -113 229 C-110.66015625 230.66015625 -110.66015625 230.66015625 -108.0625 233.0625 C-90.91604515 247.70416065 -68.27473349 249.17103604 -46.68359375 247.69140625 C-40.97989553 247.1367167 -35.83567815 245.68793044 -30.4375 243.8125 C-29.52363525 243.50078857 -28.60977051 243.18907715 -27.66821289 242.86791992 C-20.42545712 240.31725251 -13.22055267 237.61130465 -8.00390625 231.76171875 C-6 230 -6 230 -4.00390625 230.07421875 C-1.75967443 231.1110276 0.0732266 232.34378413 2.0625 233.8125 C7.06750005 237.25086083 12.22652198 239.21103498 18 241 C19.05445313 241.35964844 20.10890625 241.71929687 21.1953125 242.08984375 C25.94823541 243.2268366 30.38067211 243.34301777 35.25 243.3125 C36.18658447 243.30686035 37.12316895 243.3012207 38.08813477 243.29541016 C44.82414138 243.17703927 50.70204093 242.5115728 57 240 C58.08023437 239.5978125 59.16046875 239.195625 60.2734375 238.78125 C80.31711327 230.81687552 98.0057486 217.26999053 107.6640625 197.61328125 C108.86245308 194.76447556 109.9593874 191.90937941 111 189 C111.32661621 188.2263208 111.65323242 187.4526416 111.98974609 186.65551758 C118.55998137 169.38523022 116.50071083 147.45962321 109.234375 130.8828125 C102.63024298 116.55334316 93.65750813 107.16469669 81 98 C80.25492187 97.45085937 79.50984375 96.90171875 78.7421875 96.3359375 C66.97830328 88.31287002 54.67343078 88.51359337 41 89 C40.67 86.69 40.34 84.38 40 82 C43.16240582 79.89172945 44.50657469 79.66182535 48.1875 79.375 C49.53908203 79.26285156 49.53908203 79.26285156 50.91796875 79.1484375 C51.60503906 79.09945312 52.29210937 79.05046875 53 79 C52.92579907 59.07705025 41.62944913 41.80077515 28.1875 27.875 C15.37804694 15.43098179 -0.17320109 9.10540376 -17 4 C-18.62639404 3.48421387 -18.62639404 3.48421387 -20.28564453 2.95800781 C-26.41615959 1.37682331 -32.57742761 1.55878511 -38.875 1.5625 C-39.91661789 1.56189575 -39.91661789 1.56189575 -40.97927856 1.5612793 C-52.01210766 1.59821726 -61.82098479 2.51803571 -72 7 Z " fill="#543E36" transform="translate(317,112)"/>
<path d="M0 0 C0.33 0.99 0.66 1.98 1 3 C1.66 3 2.32 3 3 3 C3.32613281 3.72445313 3.65226562 4.44890625 3.98828125 5.1953125 C5.3167037 8.13430021 6.65743575 11.06745028 8 14 C8.495 15.093125 8.99 16.18625 9.5 17.3125 C10.9648667 20.16424816 10.9648667 20.16424816 13.5 22.8125 C15.58310868 25.19231259 16.53824029 27.22231493 17.4375 30.25 C22.43864409 46.74548631 36.01099738 57.94697691 50.4375 66.25 C61.92654174 72.28133718 74.25289123 75.39621915 87.1875 75.3125 C88.5650647 75.30404053 88.5650647 75.30404053 89.97045898 75.29541016 C101.58201822 75.08996784 111.21888397 73.02783458 121.37890625 67.109375 C124.53472773 65.77367709 125.7813348 65.93723319 129 67 C130.74897959 67.74687608 132.47800077 68.54171382 134.1875 69.375 C139.39641089 71.78230543 144.4252034 73.64458929 150 75 C151.0828125 75.27972656 152.165625 75.55945313 153.28125 75.84765625 C177.69229627 81.18137063 207.04295493 80.30083554 230 70 C230.70511719 69.4328125 231.41023437 68.865625 232.13671875 68.28125 C234 67 234 67 235.9375 67.19140625 C236.618125 67.45824219 237.29875 67.72507812 238 68 C238.78375 68.29777344 239.5675 68.59554687 240.375 68.90234375 C241.24125 69.24394531 242.1075 69.58554687 243 69.9375 C262.57197749 76.99162033 284.27878685 76.03877194 303.17578125 67.578125 C313.63731501 62.19542713 322.02016424 54.55176939 330 46 C330.59039062 45.37609375 331.18078125 44.7521875 331.7890625 44.109375 C335.71408714 39.47985876 337.25264347 34.43146999 338.96606445 28.71582031 C340.72090516 23.17276303 343.44813077 19.01844084 347.0703125 14.453125 C348.88091563 12.15138661 350.38709209 9.830498 351.875 7.3125 C352.57625 6.219375 353.2775 5.12625 354 4 C354.66 4 355.32 4 356 4 C359.79686821 15.39060462 357.72836236 31.85983294 354 43 C353.64808594 44.0828125 353.29617188 45.165625 352.93359375 46.28125 C344.93677186 68.87293164 328.53106246 83.3289293 307.37109375 93.49609375 C290.38614447 101.07338862 272.20676999 103.14579387 254.48046875 96.50390625 C248.8377495 94.06569423 243.37972887 91.37972887 239 87 C235.57278647 87.36474361 234.77586503 88.20951747 232.125 90.6875 C221.54183543 100.11737099 203.93204264 104.5733196 190 105 C188.83597656 105.03996094 187.67195312 105.07992187 186.47265625 105.12109375 C167.43378336 105.45510906 147.03725426 102.46900672 132.5625 89.0625 C131.96566406 88.45535156 131.36882812 87.84820312 130.75390625 87.22265625 C129.08725689 85.79296581 129.08725689 85.79296581 127.0390625 86.109375 C124.62068907 87.16567604 122.87238928 88.53594276 120.8125 90.1875 C104.88987392 101.30806425 86.17628414 102.42732209 67.30566406 99.59570312 C46.3264681 95.32961918 25.56206457 82.35357493 12.8671875 65.1015625 C11.14866774 62.44566833 9.55613974 59.75349123 8 57 C7.29423828 55.87851562 7.29423828 55.87851562 6.57421875 54.734375 C2.96446475 48.81395252 1.39606837 42.7539524 0 36 C-0.17418457 35.24630127 -0.34836914 34.49260254 -0.52783203 33.71606445 C-1.05581642 30.67892568 -1.12959169 27.82864319 -1.1328125 24.74609375 C-1.13410156 23.56208984 -1.13539062 22.37808594 -1.13671875 21.15820312 C-1.13285156 19.93037109 -1.12898438 18.70253906 -1.125 17.4375 C-1.12886719 16.20580078 -1.13273437 14.97410156 -1.13671875 13.70507812 C-1.13542969 12.52236328 -1.13414063 11.33964844 -1.1328125 10.12109375 C-1.13168457 9.0427124 -1.13055664 7.96433105 -1.12939453 6.85327148 C-1.01771053 4.39053394 -0.71353521 2.34715529 0 0 Z " fill="#DFD3C2" transform="translate(75,255)"/>
<path d="M0 0 C0.68578125 0.27295898 1.3715625 0.54591797 2.078125 0.82714844 C26.13399418 10.40779342 44.66307008 26.13793454 55.3125 50.125 C58.42665613 57.71523653 60 63.79841079 60 72 C53.565 72.495 53.565 72.495 47 73 C47 71.02 47 69.04 47 67 C46.42040716 64.99131937 46.42040716 64.99131937 45.4609375 63.23046875 C44.96605835 62.24554443 44.96605835 62.24554443 44.46118164 61.24072266 C44.1027417 60.56315918 43.74430176 59.8855957 43.375 59.1875 C42.82477173 58.12474854 42.82477173 58.12474854 42.26342773 57.04052734 C30.73245189 35.08562984 13.85500316 21.3621408 -9.6328125 13.8359375 C-26.86881648 9.55692955 -48.37885667 10.33758412 -64 19 C-64.82886719 19.45503906 -65.65773438 19.91007812 -66.51171875 20.37890625 C-80.82894176 28.62760459 -91.3021978 38.19304733 -100.078125 52.23828125 C-102.57418504 55.82509923 -105.05243312 59.11309687 -109.1015625 60.95703125 C-111.61713004 61.01396796 -112.42874501 60.2506686 -114.375 58.6875 C-122.82283863 52.99232789 -135.68339683 52.99167723 -145.5 54.625 C-153.99148387 56.7259857 -159.7977617 63.3049455 -165 70 C-165.495 70.99 -165.495 70.99 -166 72 C-165.38125 72.268125 -164.7625 72.53625 -164.125 72.8125 C-162 74 -162 74 -160 77 C-160.375 79.1875 -160.375 79.1875 -161 81 C-161.2475 80.401875 -161.495 79.80375 -161.75 79.1875 C-163.24535756 76.57062426 -164.42742326 75.57784707 -167 74 C-170.26269913 73.21060842 -170.26269913 73.21060842 -173.75 72.8125 C-175.50570312 72.57466797 -175.50570312 72.57466797 -177.296875 72.33203125 C-178.18890625 72.22246094 -179.0809375 72.11289063 -180 72 C-180.825293 64.24224576 -177.64445053 59.37343404 -172.9453125 53.37890625 C-168.50129819 48.20447436 -164.17268548 43.97158636 -158 41 C-157.37222656 40.68289062 -156.74445313 40.36578125 -156.09765625 40.0390625 C-150.96384268 37.89094089 -145.92536519 37.72370199 -140.4375 37.6875 C-139.72924072 37.68194092 -139.02098145 37.67638184 -138.29125977 37.6706543 C-131.25850876 37.76596669 -125.04361709 39.15724025 -118.8125 42.5625 C-114.92252102 44.68030762 -111.47750226 46 -107 46 C-107 45.34 -107 44.68 -107 44 C-106.34 44 -105.68 44 -105 44 C-105.474375 43.2575 -105.94875 42.515 -106.4375 41.75 C-107.82934427 39.30035408 -108.65450899 37.75345865 -109 35 C-101.28204809 19.00533043 -80.6962987 6.64982977 -65 0 C-63.82179688 -0.50789063 -62.64359375 -1.01578125 -61.4296875 -1.5390625 C-43.05347699 -8.56044181 -17.9861766 -7.60307776 0 0 Z " fill="#FBFBFA" transform="translate(310,119)"/>
<path d="M0 0 C5.47213881 2.74230191 10.59981064 8.62656301 12.58203125 14.40234375 C13.94677076 23.0068599 12.69283054 29.35573711 7.71484375 36.609375 C2.98828639 41.33593236 -1.41805306 43.62370878 -8.16015625 43.859375 C-14.9337805 43.51758662 -19.32178827 41.55065078 -23.91015625 36.546875 C-28.90936149 30.71256225 -29.6625765 25.32435055 -29.54296875 17.7890625 C-28.75056701 11.79739324 -25.95114364 6.99480368 -21.46875 2.953125 C-15.2909857 -1.38214819 -7.20320537 -1.98524096 0 0 Z " fill="#4F372F" transform="translate(325.09765625,231.578125)"/>
<path d="M0 0 C5.13459068 3.42306045 9.25079885 6.40637118 11.18359375 12.515625 C12.60053426 19.68810264 12.78178691 27.61987216 8.96484375 34.03125 C5.65623384 38.27553093 2.05284005 41.82885196 -3.375 42.75 C-10.20699234 43.43319923 -15.98979797 43.5373869 -21.6875 39.3828125 C-27.36743341 33.886951 -29.53109964 27.85030136 -29.75 20.0625 C-29.69020651 13.61809008 -28.90522783 9.42709307 -24.375 4.75 C-17.25434546 -1.45135778 -8.9816219 -3.32652663 0 0 Z " fill="#4F3830" transform="translate(199.375,232.25)"/>
<path d="M0 0 C1.20946289 -0.00580078 1.20946289 -0.00580078 2.44335938 -0.01171875 C3.21873047 -0.01042969 3.99410156 -0.00914062 4.79296875 -0.0078125 C5.49317139 -0.00668457 6.19337402 -0.00555664 6.91479492 -0.00439453 C8.8125 0.125 8.8125 0.125 11.8125 1.125 C11.1525 3.435 10.4925 5.745 9.8125 8.125 C9.1525 8.125 8.4925 8.125 7.8125 8.125 C7.8125 8.785 7.8125 9.445 7.8125 10.125 C7.13445312 10.21136719 6.45640625 10.29773438 5.7578125 10.38671875 C-9.01358795 12.61675012 -20.35521555 20.59921449 -29.3671875 32.40234375 C-34.30508764 39.78800126 -39.08634777 48.46092633 -39.8203125 57.42578125 C-39.90410156 58.40224609 -39.98789063 59.37871094 -40.07421875 60.38476562 C-40.19216797 61.89586914 -40.19216797 61.89586914 -40.3125 63.4375 C-40.39886719 64.46423828 -40.48523438 65.49097656 -40.57421875 66.54882812 C-40.78560577 69.07372866 -40.98979351 71.59899758 -41.1875 74.125 C-44.46006452 74.125 -45.55481218 74.00257581 -48.1875 72.125 C-49.44373778 69.77387609 -50.46863373 67.58671124 -51.4375 65.125 C-51.705625 64.48304688 -51.97375 63.84109375 -52.25 63.1796875 C-54.1875 58.45455995 -54.1875 58.45455995 -54.1875 56.125 C-54.8475 56.125 -55.5075 56.125 -56.1875 56.125 C-57.2467498 43.41400244 -50.57560374 31.63700268 -42.640625 22.046875 C-30.78836534 8.53172377 -18.3344978 -0.08921897 0 0 Z " fill="#FCFCFB" transform="translate(132.1875,201.875)"/>
<path d="M0 0 C3.87238878 2.03506389 6.26152255 4.23320093 7.8984375 8.27734375 C8.58828934 12.81065587 7.62052669 15.94172768 5.21484375 19.73046875 C2.25827951 23.20465107 -1.24898867 23.98545913 -5.53125 24.66015625 C-10.40982211 25.00121144 -13.36132494 24.59601862 -17.1640625 21.40234375 C-20.45072871 18.20074419 -21.29780794 16.05058568 -21.4765625 11.46484375 C-21.44242322 7.52175727 -21.3099293 6.55516615 -18.8515625 3.27734375 C-12.9997334 -0.97853196 -7.07423711 -2.43259083 0 0 Z " fill="#F9AC6C" transform="translate(162.1015625,266.72265625)"/>
<path d="M0 0 C3.5775893 1.85730168 6.60809192 3.72220003 9 7 C9.61282796 11.74941669 9.47892124 13.98468696 7.4375 18.3125 C3.23082211 22.95063203 -0.94027406 24.14808105 -7 24.5625 C-11.78776816 24.42361818 -14.2726162 22.91775055 -17.72265625 19.703125 C-20.22106 16.37192 -20.54903603 12.13924903 -20.44921875 8.0390625 C-19.71514656 4.70701307 -18.08808397 3.08208449 -15.40234375 1.06640625 C-10.52977657 -1.09653821 -5.18266044 -0.84628253 0 0 Z " fill="#FAA867" transform="translate(359,266)"/>
<path d="M0 0 C2.36533516 2.50049717 4.0917687 5.13765305 6 8 C10.40618874 9.6108647 15.39742406 9.67245428 20 9 C23.02230702 6.89498129 23.02230702 6.89498129 25 4 C25.598125 3.236875 26.19625 2.47375 26.8125 1.6875 C27.204375 1.130625 27.59625 0.57375 28 0 C34.875 0.875 34.875 0.875 36 2 C36.44341984 5.81341061 36.15445955 7.71396381 34.3125 11.125 C29.85939815 16.66128878 24.60953875 20.52349323 17.44921875 21.46875 C9.44481323 21.53524558 3.32468338 21.23029997 -3 16 C-6.00554896 12.76903487 -7.87319379 10.48997297 -8.25 6.0625 C-8 3 -8 3 -6.8125 1.125 C-4.27353509 -0.45090926 -2.93597381 -0.57287294 0 0 Z " fill="#48312C" transform="translate(239,255)"/>
<path d="M0 0 C2.5 1.625 2.5 1.625 4 4 C4.63656938 7.73984509 4.25584708 9.50962644 2.5 12.875 C-0.54168979 15.46043632 -2.20007233 15.69010681 -6.09375 15.4140625 C-8 15 -8 15 -10.5 13.4375 C-12.58392818 10.05111671 -12.55802097 7.90614682 -12 4 C-9.10910635 -0.69770218 -5.08522732 -1.02121368 0 0 Z " fill="#F4F4F3" transform="translate(195,238)"/>
<path d="M0 0 C2.5 1.625 2.5 1.625 4 4 C4.64250722 7.77472994 4.26836859 9.50620179 2.4375 12.875 C0 15 0 15 -3.5 15.5625 C-7 15 -7 15 -9.4375 13.5 C-11.78057502 9.75107996 -11.48773804 7.38964238 -11 3 C-8.88563468 -1.22873063 -4.1705953 -0.74684705 0 0 Z " fill="#F4F3F3" transform="translate(321,238)"/>
<path d="M0 0 C0 2.64 0 5.28 0 8 C-8.415 6.515 -8.415 6.515 -17 5 C-17 4.34 -17 3.68 -17 3 C-14.54212344 2.49766027 -12.08374976 1.99803143 -9.625 1.5 C-8.57699219 1.28537109 -8.57699219 1.28537109 -7.5078125 1.06640625 C-2.2265625 0 -2.2265625 0 0 0 Z " fill="#9CB7B6" transform="translate(189,142)"/>
<path d="M0 0 C0.33 0.99 0.66 1.98 1 3 C1.66 3 2.32 3 3 3 C5.8018492 8.91382675 8.44303409 14.630594 10 21 C7 20 7 20 6.05078125 18.2578125 C5.80714844 17.55398438 5.56351562 16.85015625 5.3125 16.125 C4.93544922 15.07699219 4.93544922 15.07699219 4.55078125 14.0078125 C4 12 4 12 4 9 C3.01 8.67 2.02 8.34 1 8 C0.34 9.32 -0.32 10.64 -1 12 C-1.14285714 3.42857143 -1.14285714 3.42857143 0 0 Z " fill="#DBCBB4" transform="translate(75,255)"/>
<path d="M0 0 C0.66 0 1.32 0 2 0 C3.01973129 3.05919388 3.11533602 5.12418025 3.09765625 8.32421875 C3.09282227 9.86625977 3.09282227 9.86625977 3.08789062 11.43945312 C3.07951172 12.51130859 3.07113281 13.58316406 3.0625 14.6875 C3.05798828 15.77095703 3.05347656 16.85441406 3.04882812 17.97070312 C3.03703743 20.64719085 3.02058063 23.32356777 3 26 C2.67 26 2.34 26 2 26 C1.67 19.73 1.34 13.46 1 7 C-0.65 7.33 -2.3 7.66 -4 8 C-2.87548273 5.0280615 -1.77706209 2.66559313 0 0 Z " fill="#D1BDAB" transform="translate(429,259)"/>
<path d="M0 0 C3.44662584 1.92369814 6.52160065 4.14109461 9.6875 6.5 C7.875 7.15625 7.875 7.15625 5.6875 7.5 C3.6875 5.83333333 1.6875 4.16666667 -0.3125 2.5 C-4.36784961 2.24654065 -7.39675821 6.02795805 -10.3125 8.5 C-10.9725 8.5 -11.6325 8.5 -12.3125 8.5 C-12.3125 7.84 -12.3125 7.18 -12.3125 6.5 C-10.34751678 5.11558 -8.34201535 3.78796166 -6.3125 2.5 C-5.2915625 1.571875 -5.2915625 1.571875 -4.25 0.625 C-2.3125 -0.5 -2.3125 -0.5 0 0 Z " fill="#F1EAD7" transform="translate(314.3125,339.5)"/>
<path d="M0 0 C0.99 0.66 1.98 1.32 3 2 C3 2.66 3 3.32 3 4 C2.45085937 3.83886719 1.90171875 3.67773438 1.3359375 3.51171875 C-5.07941701 2.10634845 -11.96009875 2.38815081 -18 5 C-18.33 4.34 -18.66 3.68 -19 3 C-12.83684242 -0.36172232 -6.96199565 -0.78373343 0 0 Z " fill="#E9E8E5" transform="translate(197,229)"/>
<path d="M0 0 C1.32 0.33 2.64 0.66 4 1 C4 1.66 4 2.32 4 3 C4.556875 3.185625 5.11375 3.37125 5.6875 3.5625 C10.22179921 6.38111843 12.85862332 10.86439839 14.3125 15.9375 C14.6528125 17.4534375 14.6528125 17.4534375 15 19 C12.45500711 16.63238541 10.57474091 14.05917722 8.625 11.1875 C5.92342317 7.26992681 3.11878128 3.5913239 0 0 Z " fill="#9EADAB" transform="translate(417,214)"/>
<path d="M0 0 C0.66 0 1.32 0 2 0 C1.67 5.94 1.34 11.88 1 18 C0.34 18 -0.32 18 -1 18 C-1.02684312 15.18743719 -1.04676188 12.37512759 -1.0625 9.5625 C-1.07087891 8.76005859 -1.07925781 7.95761719 -1.08789062 7.13085938 C-1.0965143 5.08704779 -1.0522815 3.04316098 -1 1 C-0.67 0.67 -0.34 0.34 0 0 Z " fill="#97BDBF" transform="translate(63,256)"/>
<path d="M0 0 C1.9375 0.75 1.9375 0.75 4 2 C4.75 4.125 4.75 4.125 5 6 C4.34 6 3.68 6 3 6 C3 6.66 3 7.32 3 8 C1.02 8.33 -0.96 8.66 -3 9 C-3.99 7.68 -4.98 6.36 -6 5 C-4.02 5 -2.04 5 0 5 C0.33 4.01 0.66 3.02 1 2 C0.67 1.34 0.34 0.68 0 0 Z " fill="#453732" transform="translate(200,157)"/>
<path d="M0 0 C0.33 0 0.66 0 1 0 C1.0825 1.0725 1.165 2.145 1.25 3.25 C1.75950159 6.92491953 1.75950159 6.92491953 3.5 9.4375 C7.22384246 11.76490154 10.72158453 11.32910888 15 11 C13.7109375 12.5 13.7109375 12.5 12 14 C7.66048169 14 5.56026131 13.43846538 2.125 10.75 C-0.03706717 7.95203072 -0.81623985 6.49144279 -1 3 C-0.67 2.01 -0.34 1.02 0 0 Z " fill="#39241E" transform="translate(308,241)"/>
<path d="M0 0 C0.66 0.33 1.32 0.66 2 1 C-0.73428887 4.63088126 -3.56498877 7.49105826 -7.125 10.3125 C-7.99382812 11.00988281 -8.86265625 11.70726562 -9.7578125 12.42578125 C-12 14 -12 14 -14 14 C-14 13.34 -14 12.68 -14 12 C-12.46729429 10.64864497 -10.87223227 9.36746113 -9.25 8.125 C-5.94152325 5.58076203 -2.89153346 3.01314001 0 0 Z " fill="#452A1E" transform="translate(413,326)"/>
<path d="M0 0 C3 3 3 3 3.29296875 6.13671875 C3.25816406 7.30847656 3.22335938 8.48023438 3.1875 9.6875 C3.16042969 10.86699219 3.13335937 12.04648437 3.10546875 13.26171875 C3.07066406 14.16535156 3.03585938 15.06898438 3 16 C2.34 16.33 1.68 16.66 1 17 C0.67 11.39 0.34 5.78 0 0 Z " fill="#45332D" transform="translate(208,244)"/>
<path d="M0 0 C3.30163021 1.42123155 5.3170382 3.12323422 7.6875 5.8125 C8.59048828 6.81216797 8.59048828 6.81216797 9.51171875 7.83203125 C11.17013389 10.24783282 11.62277986 12.11803815 12 15 C9.1875656 12.28069256 6.70041741 9.47255882 4.3125 6.375 C3.40951172 5.21097656 3.40951172 5.21097656 2.48828125 4.0234375 C1 2 1 2 0 0 Z " fill="#462E29" transform="translate(416,215)"/>
<path d="M0 0 C0.66 0 1.32 0 2 0 C3.33203125 1.57421875 3.33203125 1.57421875 4.8125 3.6875 C7.3104175 7.14285025 9.8993409 10.08173261 13 13 C10 13 10 13 7.7734375 11.171875 C6.98195313 10.37265625 6.19046875 9.5734375 5.375 8.75 C4.57835938 7.96109375 3.78171875 7.1721875 2.9609375 6.359375 C1.08356869 4.10054878 0.38070118 2.86182269 0 0 Z " fill="#EBE0D2" transform="translate(89,319)"/>
<path d="M0 0 C3.65564909 0.68761019 6.51867272 2.25449545 9.75 4.0625 C10.73484375 4.61035156 11.7196875 5.15820312 12.734375 5.72265625 C13.48203125 6.14417969 14.2296875 6.56570313 15 7 C13.32421875 7.67578125 13.32421875 7.67578125 11 8 C8.45703125 6.85546875 8.45703125 6.85546875 5.8125 5.1875 C4.93207031 4.64480469 4.05164063 4.10210937 3.14453125 3.54296875 C1 2 1 2 0 0 Z " fill="#3E2421" transform="translate(316,345)"/>
<path d="M0 0 C0 0.99 0 1.98 0 3 C-5.36439644 5.68219822 -9.01006953 6.3152595 -15 6 C-11.8367155 4.3279782 -8.6178082 3.07778864 -5.25 1.875 C-4.26515625 1.52179688 -3.2803125 1.16859375 -2.265625 0.8046875 C-1.14414063 0.40636719 -1.14414063 0.40636719 0 0 Z " fill="#ECE2D1" transform="translate(187,347)"/>
<path d="M0 0 C2.0625 0.4375 2.0625 0.4375 4 1 C2.09273249 2.20253816 0.1737988 3.38658949 -1.75 4.5625 C-2.81734375 5.22378906 -3.8846875 5.88507813 -4.984375 6.56640625 C-8 8 -8 8 -10.390625 7.71484375 C-10.92171875 7.47894531 -11.4528125 7.24304688 -12 7 C-11.21753906 6.57847656 -10.43507813 6.15695312 -9.62890625 5.72265625 C-8.61699219 5.17480469 -7.60507812 4.62695312 -6.5625 4.0625 C-5.55316406 3.51722656 -4.54382813 2.97195313 -3.50390625 2.41015625 C-1.13329507 1.22300532 -1.13329507 1.22300532 0 0 Z " fill="#493025" transform="translate(389,344)"/>
<path d="M0 0 C3.96 0 7.92 0 12 0 C12 0.66 12 1.32 12 2 C10.56359829 2.19573608 9.12580496 2.38127816 7.6875 2.5625 C6.88699219 2.66691406 6.08648437 2.77132813 5.26171875 2.87890625 C3 3 3 3 0 2 C0 1.34 0 0.68 0 0 Z " fill="#4D3734" transform="translate(247,265)"/>
<path d="M0 0 C3.6054232 0.62900369 6.84919935 1.58837998 10.25 2.9375 C11.12140625 3.27652344 11.9928125 3.61554688 12.890625 3.96484375 C15 5 15 5 16 7 C9.97229862 6.52412884 5.23321711 3.80277043 0 1 C0 0.67 0 0.34 0 0 Z " fill="#422620" transform="translate(118,346)"/>
<path d="M0 0 C0.66 0.66 1.32 1.32 2 2 C-3.01372252 5.52913975 -6.83543922 7.61471495 -13 8 C-11.0216411 6.0216411 -9.55500176 5.18823175 -7.0625 4 C-4.52604011 2.78629209 -2.35841552 1.57227701 0 0 Z " fill="#FBFAED" transform="translate(200,318)"/>
<path d="M0 0 C4 4 8 8 12 12 C9 12 9 12 6.5625 9.8125 C0 2.6097561 0 2.6097561 0 0 Z " fill="#D5C9B7" transform="translate(97,298)"/>
<path d="M0 0 C1.93681161 -0.08107583 3.8745934 -0.13922475 5.8125 -0.1875 C6.89144531 -0.22230469 7.97039062 -0.25710937 9.08203125 -0.29296875 C12 0 12 0 13.88671875 1.51171875 C14.25410156 2.00285156 14.62148437 2.49398437 15 3 C13.24929483 2.88529863 11.49942464 2.75780972 9.75 2.625 C8.77546875 2.55539063 7.8009375 2.48578125 6.796875 2.4140625 C4.10366811 2.01534751 2.33036721 1.36492937 0 0 Z " fill="#472C29" transform="translate(171,148)"/>
<path d="M0 0 C-0.61277612 2.96175123 -1.25372522 4.38058783 -3 7 C-4.32 7 -5.64 7 -7 7 C-3.86206897 0 -3.86206897 0 0 0 Z " fill="#89BEBF" transform="translate(84,216)"/>
<path d="M0 0 C3.16451962 0.63432938 5.51687779 1.73182928 8.25 3.4375 C8.95640625 3.86933594 9.6628125 4.30117188 10.390625 4.74609375 C10.92171875 5.15988281 11.4528125 5.57367188 12 6 C12 6.66 12 7.32 12 8 C8.58846252 7.38530856 6.48230844 6.10488946 3.75 4 C3.04359375 3.46375 2.3371875 2.9275 1.609375 2.375 C1.07828125 1.92125 0.5471875 1.4675 0 1 C0 0.67 0 0.34 0 0 Z " fill="#382220" transform="translate(207,345)"/>
<path d="M0 0 C0.66 0.33 1.32 0.66 2 1 C0.37982158 2.33918806 -1.24629343 3.6711969 -2.875 5 C-4.23238281 6.11375 -4.23238281 6.11375 -5.6171875 7.25 C-8 9 -8 9 -10 9 C-8.77946141 5.33838422 -7.63217696 4.83729526 -4.4375 2.8125 C-3.61121094 2.28269531 -2.78492188 1.75289063 -1.93359375 1.20703125 C-1.29550781 0.80871094 -0.65742188 0.41039062 0 0 Z " fill="#D6C8B7" transform="translate(393,313)"/>
<path d="M0 0 C-1.43011973 0.86646667 -2.86940619 1.71781829 -4.3125 2.5625 C-5.51326172 3.27599609 -5.51326172 3.27599609 -6.73828125 4.00390625 C-9 5 -9 5 -12 4 C-9.07491676 -0.38762486 -5.0380608 -1.6793536 0 0 Z " fill="#87C2C4" transform="translate(152,151)"/>
<path d="M0 0 C3.5786304 1.65167557 6.74820188 3.78286492 10 6 C8.375 6.8125 8.375 6.8125 6 7 C2.75 4.6875 2.75 4.6875 0 2 C0 1.34 0 0.68 0 0 Z " fill="#E7DFD8" transform="translate(314,340)"/>
<path d="M0 0 C1.9375 0.25 1.9375 0.25 4 1 C4.66 1.99 5.32 2.98 6 4 C5.071875 3.979375 4.14375 3.95875 3.1875 3.9375 C-0.02286011 3.84230396 -0.02286011 3.84230396 -3 5 C-1.125 1.125 -1.125 1.125 0 0 Z " fill="#422D26" transform="translate(201,340)"/>
<path d="M0 0 C4.20626034 1.50223584 5.73900021 4.28550034 8 8 C7.01 8 6.02 8 5 8 C0 2.65116279 0 2.65116279 0 0 Z " fill="#482F27" transform="translate(86,319)"/>
<path d="M0 0 C0.33 0 0.66 0 1 0 C1.43177893 6.26079448 0.92739438 9.09075703 -3 14 C-3.33 13.34 -3.66 12.68 -4 12 C-3.27931168 10.26379633 -2.55252881 8.52932088 -1.76953125 6.8203125 C-0.82647752 4.58953565 -0.36199988 2.38919922 0 0 Z " fill="#76A9AB" transform="translate(440,292)"/>
<path d="M0 0 C1.90608098 3.21182149 2.22266247 5.53882603 2.125 9.25 C2.10695313 10.14203125 2.08890625 11.0340625 2.0703125 11.953125 C2.04710938 12.62859375 2.02390625 13.3040625 2 14 C-0.63091471 10.05362794 -1.40815007 6.27397897 -0.5625 1.5625 C-0.376875 1.046875 -0.19125 0.53125 0 0 Z " fill="#50342E" transform="translate(73,282)"/>
<path d="M0 0 C3.2626876 3.08632611 6.02235218 5.93483504 8 10 C7.67 10.66 7.34 11.32 7 12 C5.82767315 10.3790787 4.6622923 8.75313167 3.5 7.125 C2.8503125 6.22007812 2.200625 5.31515625 1.53125 4.3828125 C0 2 0 2 0 0 Z " fill="#492922" transform="translate(417,226)"/>
<path d="M0 0 C1.32 0.33 2.64 0.66 4 1 C4 1.66 4 2.32 4 3 C4.61875 3.268125 5.2375 3.53625 5.875 3.8125 C8 5 8 5 10 8 C6.40094092 7.44449305 5.00090201 6.25112752 2.75 3.4375 C2.22921875 2.79683594 1.7084375 2.15617188 1.171875 1.49609375 C0.78515625 1.00238281 0.3984375 0.50867188 0 0 Z " fill="#90B0AF" transform="translate(417,214)"/>
<path d="M0 0 C3.61855575 0.62388892 4.1709277 1.1709277 7 4 C4.03 4 1.06 4 -2 4 C-1.34 2.68 -0.68 1.36 0 0 Z " fill="#D5C6B6" transform="translate(309,322)"/>
<path d="M0 0 C3 2 3 2 3.51171875 4.1640625 C3.56972656 4.97617187 3.62773437 5.78828125 3.6875 6.625 C3.75324219 7.44226563 3.81898438 8.25953125 3.88671875 9.1015625 C3.92410156 9.72804688 3.96148437 10.35453125 4 11 C3.34 11 2.68 11 2 11 C1.855625 9.9275 1.71125 8.855 1.5625 7.75 C1.16250558 5.08337051 0.72408076 2.58600271 0 0 Z " fill="#F9F8F1" transform="translate(366,269)"/>
<path d="M0 0 C0.33 0 0.66 0 1 0 C1.25 6.625 1.25 6.625 -1 10 C-1.99 9.67 -2.98 9.34 -4 9 C-3.2884375 7.88625 -3.2884375 7.88625 -2.5625 6.75 C-1.22130673 4.38949985 -0.487688 2.63351523 0 0 Z " fill="#E2DED7" transform="translate(337,258)"/>
<path d="M0 0 C1.32 0.33 2.64 0.66 4 1 C4.125 6.75 4.125 6.75 3 9 C2.34 9 1.68 9 1 9 C1.33 6.69 1.66 4.38 2 2 C1.34 2 0.68 2 0 2 C0 1.34 0 0.68 0 0 Z " fill="#362520" transform="translate(271,256)"/>
<path d="M0 0 C0.99 0.33 1.98 0.66 3 1 C2.09972412 2.03531726 1.17906965 3.05294165 0.25 4.0625 C-0.51570312 4.91521484 -0.51570312 4.91521484 -1.296875 5.78515625 C-3 7 -3 7 -5.203125 6.68359375 C-5.79609375 6.45800781 -6.3890625 6.23242188 -7 6 C-6.030625 5.38125 -5.06125 4.7625 -4.0625 4.125 C-0.97164638 2.34321154 -0.97164638 2.34321154 0 0 Z " fill="#95BFC1" transform="translate(205,132)"/>
<path d="M0 0 C0.33 0.99 0.66 1.98 1 3 C1.66 3 2.32 3 3 3 C2.46930939 6.82097239 1.50298434 9.06171403 -1 12 C-1.14285714 3.42857143 -1.14285714 3.42857143 0 0 Z " fill="#D0C3B7" transform="translate(75,255)"/>
<path d="M0 0 C0.66 0.33 1.32 0.66 2 1 C1.01 3.31 0.02 5.62 -1 8 C-1.99 7.67 -2.98 7.34 -4 7 C-2.92598892 4.08482708 -2.22189824 2.22189824 0 0 Z " fill="#472D24" transform="translate(302,237)"/>
<path d="M0 0 C0.66 0.33 1.32 0.66 2 1 C-1.465 3.97 -1.465 3.97 -5 7 C-5.66 6.34 -6.32 5.68 -7 5 C-5.625 3.5 -5.625 3.5 -4 2 C-3.34 2 -2.68 2 -2 2 C-1.34 1.34 -0.68 0.68 0 0 Z " fill="#584139" transform="translate(180,235)"/>
<path d="M0 0 C0.66 0.33 1.32 0.66 2 1 C-2.455 4.465 -2.455 4.465 -7 8 C-7.66 7.67 -8.32 7.34 -9 7 C-7.87720538 6.01830524 -6.75168527 5.03972702 -5.625 4.0625 C-4.68527344 3.24458984 -4.68527344 3.24458984 -3.7265625 2.41015625 C-2 1 -2 1 0 0 Z " fill="#432E23" transform="translate(105,208)"/>
<path d="M0 0 C2.475 0.99 2.475 0.99 5 2 C5 2.99 5 3.98 5 5 C3.35 5 1.7 5 0 5 C0 3.35 0 1.7 0 0 Z " fill="#74C5CA" transform="translate(358,134)"/>
<path d="M0 0 C3.87132028 0.57352893 6.08172796 2.48704352 9 5 C8.67 5.99 8.34 6.98 8 8 C6.66372225 6.85760183 5.33104612 5.71098945 4 4.5625 C3.2575 3.92441406 2.515 3.28632813 1.75 2.62890625 C1.1725 2.09136719 0.595 1.55382812 0 1 C0 0.67 0 0.34 0 0 Z " fill="#5C433C" transform="translate(402,213)"/>
<path d="M0 0 C2.4375 1.25 2.4375 1.25 3.4375 4.25 C-2.3125 2.5 -2.3125 2.5 -4.5625 0.25 C-2.5625 -0.75 -2.5625 -0.75 0 0 Z " fill="#D5C9C0" transform="translate(326.5625,346.75)"/>
<path d="M0 0 C0.33 0 0.66 0 1 0 C1.28875 1.093125 1.5775 2.18625 1.875 3.3125 C2.81893204 7.04013845 2.81893204 7.04013845 5 10 C4.01 10 3.02 10 2 10 C0 8 0 8 -0.1953125 6.0546875 C-0.13020833 4.03645833 -0.06510417 2.01822917 0 0 Z " fill="#4F4342" transform="translate(182,243)"/>
<path d="M0 0 C1.7074998 1.28062485 3.37373596 2.61767557 5 4 C5 4.66 5 5.32 5 6 C3.68 6 2.36 6 1 6 C0.67 4.02 0.34 2.04 0 0 Z " fill="#94B6BA" transform="translate(379,181)"/>
<path d="M0 0 C-2 2 -2 2 -5.625 2.125 C-6.73875 2.08375 -7.8525 2.0425 -9 2 C-8.67 1.34 -8.34 0.68 -8 0 C-4.71585695 -0.95067299 -3.30306592 -1.10102197 0 0 Z " fill="#E5DACB" transform="translate(281,356)"/>
<path d="M0 0 C2.4375 0.375 2.4375 0.375 5 1 C5.33 1.66 5.66 2.32 6 3 C3.69 3 1.38 3 -1 3 C-0.67 2.01 -0.34 1.02 0 0 Z " fill="#CDBBAA" transform="translate(199,321)"/>
<path d="M0 0 C0.99 0 1.98 0 3 0 C2.67 2.31 2.34 4.62 2 7 C0 5 0 5 -0.125 2.375 C-0.08375 1.59125 -0.0425 0.8075 0 0 Z " fill="#88B8BA" transform="translate(441,257)"/>
</svg>
